{"title":"WWE Monday Night Raw - 900th Episode -30th Aug 2010 - Xvid ][VA","uid":5800313,"size":478429184,"categoryP":"video","categoryS":"tv_shows","magnet":"?xt=urn:btih:659f822a8b410c5517b0525aad17479e58efb5d8&amp;dn=+WWE+Monday+Night+Raw+-+900th+Episode+-30th+Aug+2010+-+Xvid+%5D%5BVA&amp;tr=udp%3A%2F%2Ftracker.openbittorrent.com%3A80&amp;tr=udp%3A%2F%2Fopen.demonii.com%3A1337&amp;tr=udp%3A%2F%2Ftracker.coppersurfer.tk%3A6969&amp;tr=udp%3A%2F%2Fexodus.desync.com%3A6969","seeders":0,"leechers":0,"uploader":"Vamp111","files":1,"time":1283251684,"description":"\n[IMG]http://i1022.photobucket.com/albums/af345/bhoottt/WWEMondayNightRaw-900thEpisode-30thAug2010-XvidVAMPIREROCKs_20100831-14073489.jpg[/IMG]\n[IMG]http://i1022.photobucket.com/albums/af345/bhoottt/WWEMondayNightRaw-900thEpisode-30thAug2010-XvidVAMPIREROCKs_20100831-14032887.jpg[/IMG]\n[IMG]http://i1022.photobucket.com/albums/af345/bhoottt/WWEMondayNightRaw-900thEpisode-30thAug2010-XvidVAMPIREROCKs_20100831-14031146.jpg[/IMG]\n[IMG]http://i1022.photobucket.com/albums/af345/bhoottt/WWEMondayNightRaw-900thEpisode-30thAug2010-XvidVAMPIREROCKs_20100831-14024604.jpg[/IMG]\n[IMG]http://i1022.photobucket.com/albums/af345/bhoottt/WWEMondayNightRaw-900thEpisode-30thAug2010-XvidVAMPIREROCKs_20100831-14062078.jpg[/IMG]\n\n\n\nVideo\nID                               : 0\nFormat                           : MPEG-4 Visual\nFormat profile                   : Advanced Simple@L5\nFormat settings, BVOP            : Yes\nFormat settings, QPel            : No\nFormat settings, GMC             : No warppoints\nFormat settings, Matrix          : Default (H.263)\nCodec ID                         : XVID\nCodec ID/Hint                    : XviD\nDuration                         : 1h 35mn\nBit rate                         : 599 Kbps\nWidth                            : 624 pixels\nHeight                           : 368 pixels\nDisplay aspect ratio             : 1.696\nFrame rate                       : 25.000 fps\nResolution                       : 8 bits\nColorimetry                      : 4:2:0\nScan type                        : Progressive\nBits/(Pixel*Frame)               : 0.104\nStream size                      : 411 MiB (90%)\nWriting library                  : XviD 1.2.1 (UTC 2008-12-04)\n\nAudio\nID                               : 1\nFormat                           : MPEG Audio\nFormat version                   : Version 2\nFormat profile                   : Layer 3\nMode                             : Joint stereo\nFormat_Settings_ModeExtension    : MS Stereo\nCodec ID                         : 55\nCodec ID/Hint                    : MP3\nDuration                         : 1h 35mn\nBit rate mode                    : Constant\nBit rate                         : 56.0 Kbps\nChannel(s)                       : 2 channels\nSampling rate                    : 24.0 KHz\nStream size                      : 38.4 MiB (8%)\nAlignment                        : Aligned on interleaves\nInterleave, duration             : 40 ms (1.00 video frame)\nInterleave, preload duration     : 504 ms\n\n","torrent":{"xt":"urn:btih:659f822a8b410c5517b0525aad17479e58efb5d8","amp;dn":"+WWE+Monday+Night+Raw+-+900th+Episode+-30th+Aug+2010+-+Xvid+%5D%5BVA","amp;tr":["udp%3A%2F%2Ftracker.openbittorrent.com%3A80","udp%3A%2F%2Fopen.demonii.com%3A1337","udp%3A%2F%2Ftracker.coppersurfer.tk%3A6969","udp%3A%2F%2Fexodus.desync.com%3A6969"],"infoHash":"659f822a8b410c5517b0525aad17479e58efb5d8","infoHashBuffer":{"type":"Buffer","data":[101,159,130,42,139,65,12,85,23,176,82,90,173,23,71,158,88,239,181,216]},"announce":[],"urlList":[]}}